<?xml version="1.0" standalone="no"?>
<!DOCTYPE svg PUBLIC "-//W3C//DTD SVG 20010904//EN"
 "http://www.w3.org/TR/2001/REC-SVG-20010904/DTD/svg10.dtd">
<svg version="1.0" xmlns="http://www.w3.org/2000/svg"
 width="400.000000pt" height="400.000000pt" viewBox="0 0 400.000000 400.000000"
 preserveAspectRatio="xMidYMid meet">
<metadata>
Created by potrace 1.11, written by Peter Selinger 2001-2013
</metadata>
<g transform="translate(0.000000,400.000000) scale(0.100000,-0.100000)"
fill="#000000" stroke="none">
<path d="M2414 1990 c-60 -24 -73 -112 -25 -161 61 -60 156 -27 168 58 5 39 2
46 -30 78 -36 36 -68 43 -113 25z"/>
<path d="M1429 1959 c-78 -83 14 -205 117 -155 94 44 59 186 -46 186 -34 0
-47 -6 -71 -31z"/>
<path d="M2743 1710 c-93 -20 -181 -87 -204 -158 -13 -41 -7 -129 13 -163 91
-158 465 -174 596 -25 53 60 63 145 26 217 -20 40 -90 96 -143 114 -54 19
-228 28 -288 15z"/>
<path d="M1249 1663 c-1 -5 -2 -15 -3 -23 0 -8 -8 -15 -16 -15 -8 0 -16 -8
-18 -17 -4 -21 37 -25 56 -6 9 9 12 7 12 -10 0 -13 -6 -22 -15 -22 -8 0 -15
-4 -15 -10 0 -5 7 -10 16 -10 11 0 15 -6 11 -19 -3 -14 -1 -18 10 -14 8 3 12
12 9 19 -3 7 0 16 5 20 6 3 9 15 6 25 -3 12 2 20 14 24 28 9 23 20 -16 35 -19
8 -35 17 -35 22 0 10 -20 11 -21 1z m66 -43 c3 -5 2 -10 -4 -10 -5 0 -13 5
-16 10 -3 6 -2 10 4 10 5 0 13 -4 16 -10z"/>
<path d="M2155 1604 c-82 -19 -250 -22 -366 -5 -92 14 -98 13 -135 -6 -113
-58 -110 -220 5 -303 52 -36 171 -60 300 -60 137 0 233 19 318 61 80 39 112
80 120 152 14 134 -84 199 -242 161z m-45 -117 c0 -34 -6 -49 -26 -68 -22 -20
-35 -24 -94 -24 -59 0 -72 3 -94 24 -20 19 -26 34 -26 68 l0 43 120 0 120 0 0
-43z"/>
<path d="M1145 1600 c-3 -6 1 -13 9 -16 21 -8 20 -34 -1 -50 -17 -12 -16 -13
5 -14 12 0 22 4 22 9 0 5 10 11 23 13 12 2 22 10 22 18 0 8 -10 16 -22 18 -13
2 -23 10 -23 18 0 16 -26 19 -35 4z"/>
<path d="M1365 1580 c-3 -11 -11 -20 -16 -20 -5 0 -9 -7 -9 -15 0 -8 5 -15 10
-15 6 0 9 -3 9 -7 -3 -21 3 -33 17 -33 8 0 13 -3 11 -7 -3 -5 1 -13 8 -20 10
-10 14 -9 19 2 3 8 1 15 -4 15 -5 0 -8 9 -7 20 1 11 6 20 11 20 5 0 1 6 -9 14
-11 8 -23 12 -27 10 -4 -3 -5 9 -2 26 7 34 -1 41 -11 10z"/>
<path d="M1203 1523 c-25 -9 -13 -23 15 -17 37 9 52 24 22 23 -14 0 -31 -3
-37 -6z"/>
<path d="M1300 1491 c0 -10 -7 -22 -16 -25 -11 -4 -14 -1 -9 13 5 16 1 18 -22
13 -25 -5 -25 -6 -8 -13 11 -4 14 -8 8 -10 -13 -2 -27 -5 -40 -9 -5 -1 3 -6
17 -10 20 -7 16 -8 -22 -9 -47 -1 -48 -2 -48 -32 0 -22 -5 -32 -20 -36 -22 -6
-26 -18 -10 -28 6 -3 10 -17 10 -31 0 -21 4 -24 20 -19 11 4 20 2 20 -4 0 -6
16 -9 35 -7 19 1 35 -1 35 -6 0 -4 5 -8 10 -8 6 0 10 7 10 16 0 8 5 12 10 9 6
-3 10 -1 10 4 0 6 5 11 11 11 6 0 23 9 39 20 15 11 31 16 36 12 4 -4 2 1 -5
11 -12 15 -12 17 5 11 16 -6 17 -5 7 7 -7 7 -13 24 -14 39 0 14 -3 19 -6 13
-10 -25 -22 -13 -13 13 14 35 13 44 -5 44 -8 0 -15 7 -15 15 0 8 -7 15 -15 15
-8 0 -15 -9 -15 -19z m25 -20 c3 -5 1 -12 -5 -16 -5 -3 -10 1 -10 9 0 18 6 21
15 7z m0 -41 c3 -5 -1 -10 -10 -10 -9 0 -13 5 -10 10 3 6 8 10 10 10 2 0 7 -4
10 -10z m-125 -22 c0 -16 -3 -19 -11 -11 -6 6 -8 16 -5 22 11 17 16 13 16 -11z
m65 -4 c31 -33 32 -40 3 -20 -12 9 -30 16 -40 16 -28 0 -21 21 10 29 2 1 14
-11 27 -25z m-73 -43 c-8 -5 -10 -15 -6 -27 7 -19 7 -19 -14 0 l-22 19 22 12
c24 12 41 9 20 -4z m38 -17 c0 -8 -4 -12 -10 -9 -5 3 -10 10 -10 16 0 5 5 9
10 9 6 0 10 -7 10 -16z m20 -34 c0 -5 -2 -10 -4 -10 -3 0 -8 5 -11 10 -3 6 -1
10 4 10 6 0 11 -4 11 -10z"/>
<path d="M1380 1426 c0 -21 11 -46 20 -46 4 0 7 13 6 30 -1 29 -26 44 -26 16z"/>
<path d="M1112 1400 c0 -14 2 -19 5 -12 2 6 2 18 0 25 -3 6 -5 1 -5 -13z"/>
<path d="M1088 1345 c30 -22 28 -39 -3 -31 -18 5 -25 2 -25 -8 0 -8 -6 -17
-12 -20 -7 -3 -3 -3 9 -1 12 3 24 2 27 -3 3 -5 20 -9 38 -9 18 0 25 2 16 4
-11 3 -18 16 -20 41 -2 31 -7 38 -28 40 l-25 3 23 -16z"/>
<path d="M1190 1270 c-9 -6 -10 -10 -3 -10 6 0 15 5 18 10 8 12 4 12 -15 0z"/>
</g>
</svg>
